<?xml version="1.0" standalone="no"?>
<!DOCTYPE svg PUBLIC "-//W3C//DTD SVG 20010904//EN"
 "http://www.w3.org/TR/2001/REC-SVG-20010904/DTD/svg10.dtd">
<svg version="1.0" xmlns="http://www.w3.org/2000/svg"
 width="246.000000pt" height="177.000000pt" viewBox="0 0 246.000000 177.000000"
 preserveAspectRatio="xMidYMid meet">
<metadata>
Created by potrace 1.13, written by Peter Selinger 2001-2015
</metadata>
<g transform="translate(0.000000,177.000000) scale(0.100000,-0.100000)"
fill="#000000" stroke="none">
<path d="M1170 1681 c-90 -17 -178 -98 -201 -184 -19 -70 -8 -158 27 -213 107
-174 341 -174 449 0 24 40 30 62 33 121 4 81 -13 134 -62 192 -51 60 -166 99
-246 84z"/>
<path d="M594 1341 c-91 -56 -106 -181 -30 -257 66 -66 163 -65 228 4 76 82
56 206 -43 257 -40 21 -117 19 -155 -4z"/>
<path d="M1684 1341 c-95 -58 -111 -172 -36 -253 65 -69 162 -70 228 -4 78 78
59 212 -36 261 -41 21 -118 19 -156 -4z"/>
<path d="M918 1080 c-45 -14 -96 -49 -120 -83 -12 -18 -101 -142 -199 -277
-97 -135 -186 -261 -198 -280 -44 -73 -17 -167 59 -207 38 -20 58 -23 162 -23
l118 0 0 -30 c0 -24 6 -33 26 -40 34 -13 874 -13 908 0 20 7 26 16 26 40 l0
30 118 0 c104 0 124 3 162 23 76 40 103 134 59 207 -12 19 -101 145 -198 280
-98 135 -187 260 -200 277 -12 18 -43 45 -69 60 l-47 28 -290 2 c-159 1 -302
-2 -317 -7z m763 -250 c18 -10 19 -24 19 -315 l0 -305 -480 0 -480 0 0 299 c0
259 2 302 16 315 14 14 69 16 460 16 288 0 452 -4 465 -10z"/>
<path d="M1171 606 c-48 -27 -66 -100 -35 -145 9 -13 32 -29 50 -37 29 -12 39
-12 68 0 40 17 66 51 66 88 0 82 -80 132 -149 94z"/>
<path d="M459 975 c-14 -8 -88 -100 -164 -205 -116 -162 -137 -197 -137 -228
0 -28 7 -43 31 -64 27 -24 40 -28 90 -28 89 0 95 13 101 220 l5 165 117 5 117
5 44 60 c24 33 47 66 51 73 11 18 -220 16 -255 -3z"/>
<path d="M1726 978 c4 -7 27 -40 51 -73 l44 -60 117 -5 117 -5 5 -165 c6 -207
12 -220 101 -220 50 0 63 4 90 28 24 21 31 36 31 64 0 31 -21 66 -138 228 -82
114 -148 197 -165 206 -37 19 -264 21 -253 2z"/>
</g>
</svg>
